<svg width="79" height="78" viewBox="0 0 79 78" fill="none" xmlns="http://www.w3.org/2000/svg">
<path d="M26.9989 12.6048L38.072 1.53165C38.4626 1.14112 39.0957 1.14112 39.4863 1.53165L51.113 13.1584C51.5035 13.5489 51.5035 14.182 51.113 14.5726L46.449 19.2366C45.2774 20.4081 45.2774 22.3076 46.449 23.4792L52.6391 29.6693C53.8106 30.8409 55.7101 30.8409 56.8817 29.6693L61.5457 25.0053C61.9362 24.6148 62.5694 24.6148 62.9599 25.0053L77.1948 39.2402C77.5853 39.6307 77.5853 40.2639 77.1948 40.6544L66.1216 51.7276C65.7311 52.1181 65.0979 52.1181 64.7074 51.7276L59.7113 46.7315C58.5397 45.5599 56.6402 45.5599 55.4687 46.7315L49.7214 52.4787C48.5498 53.6503 48.5498 55.5498 49.7214 56.7214L54.7175 61.7175C55.108 62.108 55.108 62.7412 54.7175 63.1317L41.1469 76.7024C40.7563 77.0929 40.1232 77.0929 39.7326 76.7024L25.4978 62.4675C25.1072 62.077 24.4741 62.077 24.0835 62.4675L19.4195 67.1315C18.248 68.3031 16.3485 68.3031 15.1769 67.1315L8.9868 60.9414C7.81522 59.7698 7.81523 57.8703 8.9868 56.6987L13.6508 52.0347C14.0413 51.6442 14.0413 51.011 13.6508 50.6205L2.02409 38.9938C1.63357 38.6033 1.63357 37.9701 2.02409 37.5796L15.5947 24.0089C15.9853 23.6184 15.9853 22.9853 15.5947 22.5947L10.5986 17.5986C9.42705 16.427 9.42705 14.5275 10.5986 13.356L16.3459 7.6087C17.5175 6.43713 19.417 6.43713 20.5885 7.6087L25.5847 12.6048C25.9752 12.9953 26.6083 12.9953 26.9989 12.6048Z" fill="#FFE240" stroke="#FFE240" stroke-width="2" stroke-linecap="round" stroke-linejoin="round"/>
</svg>
