<svg width="150" height="149" viewBox="0 0 150 149" fill="none" xmlns="http://www.w3.org/2000/svg">
<path d="M50.0673 24.292L72.6289 1.7304C73.0194 1.33987 73.6526 1.33987 74.0431 1.7304L97.6674 25.3548C98.058 25.7453 98.058 26.3784 97.6674 26.769L86.1104 38.326C84.9388 39.4976 84.9388 41.3971 86.1104 42.5687L101.899 58.3569C103.07 59.5284 104.97 59.5284 106.141 58.3569L117.698 46.7998C118.089 46.4093 118.722 46.4093 119.113 46.7998L147.745 75.4319C148.135 75.8224 148.135 76.4556 147.745 76.8461L125.183 99.4077C124.792 99.7982 124.159 99.7982 123.769 99.4077L111.574 87.213C110.403 86.0414 108.503 86.0414 107.331 87.213L92.3935 102.151C91.2219 103.323 91.2219 105.222 92.3935 106.394L104.588 118.588C104.979 118.979 104.979 119.612 104.588 120.003L77.2314 147.359C76.8409 147.75 76.2077 147.75 75.8172 147.359L47.1851 118.727C46.7946 118.337 46.1615 118.337 45.7709 118.727L34.2139 130.284C33.0423 131.456 31.1428 131.456 29.9712 130.284L14.183 114.496C13.0115 113.324 13.0115 111.425 14.183 110.253L25.7401 98.6963C26.1306 98.3058 26.1306 97.6726 25.7401 97.2821L2.11572 73.6578C1.7252 73.2672 1.7252 72.6341 2.11572 72.2435L29.4725 44.8868C29.863 44.4963 29.863 43.8631 29.4725 43.4726L17.2777 31.2779C16.1062 30.1063 16.1062 28.2068 17.2777 27.0352L32.2157 12.0973C33.3873 10.9257 35.2868 10.9257 36.4584 12.0973L48.6531 24.292C49.0436 24.6825 49.6768 24.6825 50.0673 24.292Z" fill="#534AD9" stroke="#534AD9" stroke-width="2" stroke-linecap="round" stroke-linejoin="round"/>
</svg>
